PathFileType	4	(X/Y/Z)	./resultDataOpenSim/trcMotMarkerGrf/sub06/qtm-02-08.trc
DataRate	CameraRate	NumFrames	NumMarkers	Units	OrigDataRate	OrigDataStartFrame	OrigNumFrames
250.000000	250.000000	10	24	m	250.000000	245	489
Frame#	Time	L.Toe.Tip			R.Toe.Tip			L.Ankle.Lat			R.Ankle.Lat			L.Ankle.Med			R.Ankle.Med			L.Heel			R.Heel			L.Knee.Lat			R.Knee.Lat			L.Knee.Med			R.Knee.Med			L.Thigh.Upper			R.Thigh.Upper			L.ASIS			R.ASIS			V.Sacral			L.Acromium			R.Acromium			C7			L.Elbow			R.Elbow			L.Wrist.Lat			R.Wrist.Lat
		X1	Y1	Z1	X2	Y2	Z2	X3	Y3	Z3	X4	Y4	Z4	X5	Y5	Z5	X6	Y6	Z6	X7	Y7	Z7	X8	Y8	Z8	X9	Y9	Z9	X10	Y10	Z10	X11	Y11	Z11	X12	Y12	Z12	X13	Y13	Z13	X14	Y14	Z14	X15	Y15	Z15	X16	Y16	Z16	X17	Y17	Z17	X18	Y18	Z18	X19	Y19	Z19	X20	Y20	Z20	X21	Y21	Z21	X22	Y22	Z22	X23	Y23	Z23	X24	Y24	Z24

245	0.976	0.072319536	0.0089037144	0.0020427132	0.67763759	0.1150427	0.17727452	-0.04136754	0.065526526	-0.020426947	0.54109572	0.09261293	0.18437369	-0.035081186	0.081635652	0.065538308	0.56256395	0.12722323	0.10232309	-0.11788328	0.054353586	0.027642676	0.50791487	0.057541315	0.11548743	0.10832563	0.40719965	-0.044814425	0.44640413	0.47260077	0.19906328	0.095304388	0.41182197	0.076382248	0.43459242	0.44836034	0.071220191	0.19594694	0.78265226	-0.11651099	0.23853261	0.78196314	0.23039445	0.28313542	0.82638251	-0.082050729	0.3158057	0.83634837	0.16230837	0.11024313	0.90450115	0.071201863	0.26186551	1.3147266	-0.13252939	0.24138224	1.2989392	0.23009904	0.1751212	1.3459491	0.043182213	0.28059722	0.9859702	-0.2042426	0.08234951	1.026433	0.27999839	0.50351303	0.89733006	-0.14617203	0.13741376	0.79992523	0.34480684
246	0.98	0.072364956	0.0088956093	0.0019605246	0.69094073	0.11768169	0.1774455	-0.040696027	0.066312964	-0.020921049	0.55461504	0.093070256	0.18431206	-0.034430511	0.082424635	0.065084808	0.57563677	0.12798175	0.10222938	-0.11736121	0.055925601	0.026876364	0.52214655	0.05729419	0.11555148	0.11217963	0.40667015	-0.044937409	0.45354237	0.47071131	0.19859454	0.099623611	0.41119684	0.075824405	0.44185172	0.44621531	0.070234465	0.20131674	0.78169056	-0.11602003	0.24632335	0.7801988	0.23064314	0.28908313	0.82533101	-0.082199257	0.32305525	0.83501459	0.16208853	0.11732383	0.9032314	0.072064728	0.26825562	1.313401	-0.13219401	0.24810685	1.2973836	0.2305577	0.18160006	1.3446775	0.043635376	0.28847135	0.98406316	-0.20425375	0.088540112	1.0252384	0.27992659	0.51232053	0.89809651	-0.14453017	0.14183259	0.79865186	0.34537159
247	0.984	0.072418798	0.0088932682	0.001895354	0.70357122	0.12011712	0.17766694	-0.040007696	0.067148147	-0.021400028	0.56714295	0.093789936	0.18432331	-0.033719106	0.083271467	0.064667809	0.58814749	0.12861074	0.10208287	-0.11677947	0.057581813	0.026156524	0.53572262	0.057025343	0.11554914	0.11615649	0.40611087	-0.045069393	0.46075535	0.46896985	0.19803217	0.10408467	0.41050743	0.075271831	0.44911942	0.44421279	0.069216439	0.20676502	0.78068684	-0.11559523	0.25412568	0.77841924	0.23087775	0.29508132	0.82425458	-0.082314534	0.33038433	0.83370716	0.16191923	0.12446559	0.901991	0.072895117	0.2746172	1.3120578	-0.13184134	0.25485844	1.2958012	0.23103091	0.18813613	1.3433991	0.04408445	0.29540099	0.98354699	-0.20455359	0.094867925	1.0239902	0.27989571	0.52106417	0.89878249	-0.14288546	0.14634084	0.79731956	0.34595298
248	0.988	0.072480763	0.0088992631	0.001850226	0.71551843	0.12231101	0.17789468	-0.039224836	0.068004324	-0.02187416	0.57882462	0.094606876	0.18434786	-0.032951456	0.08415248	0.06424903	0.60006593	0.12910662	0.10189903	-0.1161432	0.059316279	0.025500693	0.54863688	0.056707605	0.11545466	0.12024828	0.40554204	-0.045228558	0.46808068	0.46742243	0.19734999	0.10860466	0.40970986	0.074873453	0.45637373	0.44236274	0.068179563	0.21230314	0.77965652	-0.11521105	0.26187217	0.7766306	0.23102244	0.30114235	0.82316195	-0.082403934	0.33782069	0.83245694	0.16180625	0.13169382	0.90073378	0.07363723	0.28095224	1.3107065	-0.13147008	0.26164451	1.294197	0.23152269	0.19468482	1.3421348	0.044594441	0.30272221	0.98402722	-0.20433068	0.10121299	1.0227613	0.28004616	0.52974591	0.89938404	-0.14124845	0.15095757	0.79594717	0.34655377
249	0.992	0.072547558	0.0089139328	0.0018164809	0.7267935	0.1242138	0.17809805	-0.038326794	0.068876127	-0.022333773	0.58996521	0.095227962	0.18426661	-0.032135253	0.085058339	0.063808824	0.61138744	0.1294538	0.10166107	-0.11544871	0.061128304	0.02489728	0.56088772	0.056308645	0.11524693	0.12442388	0.40497981	-0.045406555	0.47556453	0.46608182	0.1965715	0.11318502	0.40884593	0.074586646	0.4636115	0.44068751	0.067160093	0.21792923	0.77862237	-0.11483684	0.26964594	0.77489227	0.23109897	0.30726798	0.82206172	-0.082478693	0.34533849	0.83125472	0.16172521	0.13903485	0.89945936	0.074294986	0.28726554	1.3093531	-0.13108288	0.26846796	1.292579	0.23203499	0.20120619	1.3408935	0.045216062	0.31084585	0.98443585	-0.20352141	0.10751849	1.0215881	0.28043389	0.53836617	0.89990322	-0.13963024	0.15569555	0.79454571	0.34717021
250	0.996	0.072613824	0.0089307885	0.001782435	0.73742383	0.12577395	0.17824135	-0.037354679	0.069787863	-0.022771371	0.60070792	0.095498127	0.18400676	-0.031264136	0.086002403	0.063357715	0.62212843	0.12960935	0.10134985	-0.11468556	0.063016808	0.024317102	0.5724671	0.055798855	0.11490749	0.12866178	0.40443498	-0.045587069	0.48320353	0.46490579	0.19575142	0.11784507	0.40797732	0.074332733	0.4708531	0.43921862	0.066199012	0.22363841	0.77759046	-0.11445116	0.2776601	0.77328841	0.2312297	0.31345368	0.82096025	-0.08255465	0.35290511	0.83008317	0.16164525	0.14649181	0.89818476	0.074894178	0.29356021	1.3080014	-0.1306862	0.27532732	1.2909582	0.23256834	0.20775058	1.3396611	0.045887532	0.31934089	0.9840065	-0.20253394	0.11387606	1.0204198	0.28094166	0.54692322	0.90034535	-0.13803349	0.16054339	0.79311909	0.3477953
251	1	0.072678134	0.0089426844	0.0017404691	0.74743705	0.12694277	0.17827469	-0.036347385	0.070761729	-0.023199178	0.6109897	0.095435183	0.18356225	-0.030323488	0.087003041	0.062913423	0.63229422	0.12953402	0.10095531	-0.11385027	0.064978955	0.023741325	0.58335603	0.055163536	0.11441771	0.13296032	0.40390994	-0.045762317	0.49094924	0.46383187	0.19494513	0.12259839	0.40714355	0.074078383	0.47809777	0.43797438	0.065310046	0.22942738	0.77655277	-0.11404077	0.28601285	0.77185391	0.23149008	0.31968452	0.8198622	-0.082640211	0.36050678	0.82893666	0.16154353	0.15404821	0.8969236	0.075456891	0.29983969	1.306657	-0.13028489	0.28222295	1.2893476	0.23312366	0.21443837	1.3384075	0.046462639	0.32778716	0.98277938	-0.20166807	0.12039512	1.0191986	0.28144276	0.55541379	0.90071309	-0.1364576	0.16547225	0.79167449	0.34842364
252	1.004	0.072744725	0.008948299	0.0016920382	0.75685468	0.12767806	0.1781361	-0.035311456	0.071803998	-0.023635289	0.62071504	0.095093051	0.18295013	-0.029306443	0.088068638	0.062478181	0.64187475	0.12922708	0.10045239	-0.11294492	0.06701555	0.023170202	0.59353958	0.054398666	0.1137678	0.13732967	0.40340172	-0.045940404	0.49874941	0.46282721	0.19418829	0.12745214	0.40636385	0.073830382	0.48530487	0.43694992	0.064486183	0.23529161	0.77549977	-0.11360213	0.29453348	0.77053289	0.23180802	0.32591708	0.81877309	-0.082717563	0.36814633	0.82781689	0.1614078	0.16168004	0.89568272	0.075997245	0.30611302	1.3053289	-0.12987689	0.28915189	1.2877599	0.23370029	0.22130784	1.337122	0.046898055	0.33600017	0.98121786	-0.20114228	0.12709072	1.0179276	0.28191775	0.56382983	0.90100596	-0.1349044	0.1704854	0.79022408	0.34905358
253	1.008	0.072820347	0.0089517313	0.0016475906	0.7656959	0.12795586	0.17776663	-0.034231444	0.072913887	-0.024089407	0.62984001	0.094499247	0.18218852	-0.028221183	0.089196546	0.062036091	0.65085817	0.12871157	0.099799051	-0.11197201	0.069129319	0.02260725	0.60301444	0.053501572	0.11296977	0.14178081	0.40290618	-0.04613782	0.50655811	0.4618864	0.19348909	0.13240868	0.4056474	0.073602816	0.49245126	0.43612649	0.063736405	0.24122591	0.77442802	-0.1131415	0.30299447	0.76924854	0.23208102	0.33208157	0.81770145	-0.082741509	0.37583035	0.82672269	0.16123282	0.16936299	0.8944652	0.07652499	0.31239464	1.3040277	-0.12945539	0.29610915	1.2862031	0.23429501	0.22823813	1.3358384	0.047346363	0.34395097	0.97969213	-0.20109819	0.1339176	1.0166379	0.28238976	0.57216171	0.90122578	-0.13337535	0.17566533	0.78877976	0.34968815
254	1.012	0.072911338	0.0089588873	0.0016162836	0.77398437	0.12777509	0.177127	-0.033083275	0.074089361	-0.024559225	0.63835577	0.09366926	0.18129839	-0.027079728	0.09038033	0.061566683	0.65923546	0.12798715	0.09896761	-0.11093738	0.071321067	0.022046438	0.61177884	0.052465936	0.11205581	0.14632589	0.40241736	-0.046360955	0.51433244	0.46099977	0.19283326	0.1374718	0.40499423	0.073397459	0.49957457	0.43548491	0.063092846	0.24722966	0.77333905	-0.11266874	0.31136917	0.76800451	0.23231432	0.33814848	0.81665118	-0.082685793	0.38357814	0.82565354	0.16102495	0.17707404	0.89327334	0.077049165	0.31869681	1.3027598	-0.12901661	0.30309548	1.2846804	0.23490509	0.23508009	1.3346054	0.047991325	0.35173744	0.97831613	-0.20133855	0.14083387	1.0153465	0.28287091	0.58040566	0.90137708	-0.13187043	0.18110533	0.78734806	0.35033265
